<svg xmlns="http://www.w3.org/2000/svg" viewBox="0 0 512 512" style="enable-background:new 0 0 512 512" xml:space="preserve"><path style="fill:#963737" d="m366.933 355.052-6.109 79.418c-1.367 17.783-16.197 31.516-34.033 31.516H185.209c-17.836 0-32.665-13.732-34.033-31.516l-6.109-79.418h221.866z"/><path style="fill:#fff" d="m187.733 363.585 13.227 39.68c1.23 3.691 6.45 3.691 7.68 0l13.227-39.68h-34.134zM290.133 363.585l13.227 39.68c1.23 3.691 6.45 3.691 7.68 0l13.227-39.68h-34.134z"/><path style="fill:#c83741" d="M343.809 433.16c-.681 8.836-8.155 15.758-17.017 15.758H185.209c-8.862 0-16.336-6.922-17.017-15.758l-6.007-78.109h-17.118l6.109 79.418c1.369 17.783 16.197 31.516 34.033 31.516h141.583c17.836 0 32.665-13.732 34.033-31.516l6.109-79.418h-17.117l-6.008 78.109z"/><path style="fill:#ffdc78" d="M375.467 99.051c-33.084-26.745-74.502-42.667-119.482-42.667-44.82 0-86.105 15.81-119.131 42.383L256 201.451l119.467-102.4z"/><path style="fill:#ffcf65" d="M94.431 15.173c-.399-3.486-4.947-4.535-6.737-1.518C82.806 21.891 76.8 36.134 76.8 56.385c0 34.133 34.133 68.267 34.133 68.267h59.733c.001-24.312-69.263-48.623-76.235-109.479zM417.57 15.173c.399-3.486 4.947-4.535 6.737-1.518 4.886 8.236 10.893 22.479 10.893 42.73 0 34.133-34.133 68.267-34.133 68.267h-59.733c-.001-24.312 69.264-48.623 76.236-109.479z"/><path style="fill:#ffb450" d="M68.267 320.918c-29.042 0-51.2-30.291-51.2-42.667 0-4.717-3.817-8.533-8.533-8.533S0 273.535 0 278.251c0 20.983 28.15 59.733 68.267 59.733h81.067v-17.067H68.267zM503.467 269.718a8.528 8.528 0 0 0-8.533 8.533c0 12.375-22.158 42.667-51.2 42.667h-80v17.067h80c40.116 0 68.267-38.75 68.267-59.733a8.53 8.53 0 0 0-8.534-8.534z"/><path style="fill:#ff4b4b" d="M477.867 252.652a8.528 8.528 0 0 0-8.533 8.533c0 11.9-12.516 34.133-42.667 34.133h-25.6v17.067h25.6c38.975 0 59.733-29.733 59.733-51.2a8.528 8.528 0 0 0-8.533-8.533zM85.333 295.318c-30.15 0-42.667-22.234-42.667-34.133 0-4.717-3.817-8.533-8.533-8.533s-8.533 3.817-8.533 8.533c0 21.467 20.758 51.2 59.733 51.2h25.6v-17.067h-25.6zM349.867 320.918H162.133l-39.342 19.67c-4.866 2.433-4.635 9.472.349 11.655C201.909 386.767 256 363.585 256 363.585s54.091 23.182 132.86-11.341c4.982-2.183 5.214-9.222.349-11.655l-39.342-19.671z"/><path style="fill:#ffcf65" d="M349.867 124.651c-42.017 0-78.081 25.33-93.867 61.532-15.786-36.202-51.85-61.532-93.867-61.532-56.555 0-102.4 45.846-102.4 102.4s45.846 102.4 102.4 102.4c42.017 0 78.081-25.33 93.867-61.532 15.786 36.202 51.85 61.532 93.867 61.532 56.555 0 102.4-45.846 102.4-102.4 0-56.554-45.846-102.4-102.4-102.4z"/><circle style="fill:#ffb450" cx="162.133" cy="227.05" r="85.333"/><circle style="fill:#ffb450" cx="349.867" cy="227.05" r="85.333"/><circle style="fill:#963737" cx="162.133" cy="227.05" r="59.733"/><circle style="fill:#fff" cx="162.133" cy="227.05" r="34.133"/><circle style="fill:#ff4b4b" cx="162.133" cy="227.05" r="12.8"/><path style="fill:#ffdc78" d="M318.459 289.496c-4.702-2.293-9.206-2.991-13.395-2.615-4.031.361-7.645-2.033-8.997-5.849-5.859-16.525-21.527-28.381-40.066-28.381s-34.207 11.856-40.066 28.381c-1.353 3.814-4.966 6.209-8.997 5.849-4.189-.375-8.693.323-13.395 2.615-6.662 3.249-11.859 9.357-13.585 16.566-4.039 16.878 8.645 31.922 24.844 31.922 9.131 0 17.089-4.816 21.62-12.01 7.674 7.405 18.073 12.01 29.58 12.01 11.507 0 21.906-4.605 29.58-12.01 4.532 7.194 12.49 12.01 21.62 12.01 16.198 0 28.882-15.044 24.844-31.922-1.728-7.208-6.925-13.316-13.587-16.566z"/><path style="fill:#ff4b4b" d="M191.648 160.376c-19.357-8.838-59.718-22.627-118.665-19.602-3.82.196-5.471-4.787-2.263-6.871 24.86-16.157 87.324-48.164 139.494-3.651 6.963 5.941 8.569 16.093 3.491 23.709-4.816 7.225-14.157 10.023-22.057 6.415zM320.352 160.376c19.357-8.838 59.718-22.627 118.665-19.602 3.82.196 5.471-4.787 2.263-6.871-24.86-16.157-87.324-48.164-139.494-3.651-6.963 5.941-8.569 16.093-3.491 23.709 4.818 7.225 14.157 10.023 22.057 6.415z"/><path style="fill:#ffcf65" d="M358.41 465.985c3.573 0 5.521 4.282 3.132 6.94-18.18 20.227-48.277 27.194-71.408 27.194-17.067 0-34.133-8.533-34.133-8.533s-17.067 8.533-34.133 8.533c-23.131 0-53.228-6.966-71.408-27.194-2.388-2.658-.442-6.94 3.132-6.94H358.41z"/><path style="fill:#fff" d="m221.867 465.985-13.572-33.931c-1.262-3.154-5.727-3.154-6.989 0l-13.572 33.931M324.267 465.985l-13.572-33.931c-1.262-3.154-5.727-3.154-6.989 0l-13.572 33.931"/><circle style="fill:#963737" cx="349.867" cy="227.05" r="59.733"/><circle style="fill:#fff" cx="349.867" cy="227.05" r="34.133"/><circle style="fill:#ff4b4b" cx="349.867" cy="227.05" r="12.8"/></svg>